<svg viewBox="0 0 24 24" fill="none" stroke="currentColor" stroke-width="1.8" stroke-linecap="round" stroke-linejoin="round" aria-hidden="true">
  <path d="M12 3c-4.97 0-9 3.58-9 8 0 2.17 1.05 4.13 2.75 5.57.66.56 1.06 1.39 1.06 2.26 0 1.2.97 2.17 2.17 2.17h2.28c1.2 0 2.17-.97 2.17-2.17 0-.87.4-1.7 1.08-2.24C19 15.15 21 12.88 21 10c0-3.87-4.03-7-9-7Z"/>
  <circle cx="7.5" cy="10" r="1.1"/>
  <circle cx="11" cy="7.3" r="1.1"/>
  <circle cx="15.2" cy="8.2" r="1.1"/>
  <circle cx="16.5" cy="12.5" r="1.1"/>
</svg>
